<svg width="108" height="108" viewBox="0 0 108 108" fill="none" xmlns="http://www.w3.org/2000/svg">
<path fill-rule="evenodd" clip-rule="evenodd" d="M99 31.5C99 19.0755 88.9245 9 76.5 9C62.757 9 45.243 9 31.5 9C19.0755 9 9 19.0755 9 31.5C9 45.243 9 62.757 9 76.5C9 88.9245 19.0755 99 31.5 99C45.243 99 62.757 99 76.5 99C88.9245 99 99 88.9245 99 76.5C99 62.757 99 45.243 99 31.5Z" fill="url(#paint0_radial_12_41)"/>
<path d="M67.311 22.5225C76.7205 22.6125 85.383 30.69 85.4775 40.689C85.509 49.563 85.509 58.437 85.4775 67.311C85.3875 76.6845 77.31 85.383 67.311 85.4775C58.437 85.509 49.563 85.509 40.689 85.4775C31.275 85.3875 22.617 77.31 22.5225 67.311C22.491 58.437 22.491 49.563 22.5225 40.689C22.608 31.2705 30.6675 22.617 40.689 22.5225C49.563 22.491 58.437 22.491 67.311 22.5225ZM40.8105 26.775C33.507 26.7975 26.847 33.129 26.775 40.716C26.748 49.572 26.748 58.428 26.775 67.284C26.8425 74.5065 33.021 81.153 40.716 81.225C49.572 81.252 58.428 81.252 67.284 81.225C74.5245 81.1575 81.153 74.979 81.225 67.284C81.252 58.428 81.252 49.572 81.225 40.716C81.1575 33.444 74.8575 26.847 67.284 26.775C58.4595 26.748 49.635 26.775 40.8105 26.775Z" fill="white"/>
<path d="M54.108 38.25C61.389 38.3175 68.175 43.9335 69.507 51.129C70.4565 56.259 68.6655 61.821 64.8855 65.43C60.678 69.435 54.1665 70.866 48.5865 68.823C42.3495 66.5415 37.962 59.967 38.2545 53.307C38.61 45.351 45.639 38.277 54 38.25C54.036 38.25 54.072 38.25 54.108 38.25ZM53.928 42.5115C48.7305 42.561 43.83 46.503 42.75 51.624C41.6565 56.8035 44.6355 62.55 49.527 64.6155C54.8685 66.8745 61.767 64.341 64.3455 59.067C67.014 53.6175 64.4985 46.215 58.8645 43.5825C57.33 42.867 55.6245 42.507 53.928 42.5115Z" fill="white"/>
<path fill-rule="evenodd" clip-rule="evenodd" d="M74.25 37.0215C74.25 36.153 73.9035 35.3205 73.2915 34.7085C72.6795 34.0965 71.847 33.75 70.9785 33.75C70.911 33.75 70.839 33.75 70.7715 33.75C69.903 33.75 69.0705 34.0965 68.4585 34.7085C67.8465 35.3205 67.5 36.153 67.5 37.0215C67.5 37.0575 67.5 37.089 67.5 37.125C67.5 38.0205 67.8555 38.88 68.49 39.51C69.12 40.1445 69.9795 40.5 70.875 40.5C72.738 40.5 74.25 38.988 74.25 37.125C74.25 37.089 74.25 37.0575 74.25 37.0215Z" fill="white"/>
<defs>
<radialGradient id="paint0_radial_12_41" cx="0" cy="0" r="1" gradientUnits="userSpaceOnUse" gradientTransform="translate(9 96.75) scale(125.699)">
<stop stop-color="#FF8100"/>
<stop offset="0.19" stop-color="#FF7209"/>
<stop offset="0.32" stop-color="#F55E16"/>
<stop offset="0.48" stop-color="#D92938"/>
<stop offset="1" stop-color="#9100FF"/>
</radialGradient>
</defs>
</svg>
