<?xml version="1.0" standalone="no"?>
<!DOCTYPE svg PUBLIC "-//W3C//DTD SVG 20010904//EN"
 "http://www.w3.org/TR/2001/REC-SVG-20010904/DTD/svg10.dtd">
<svg version="1.0" xmlns="http://www.w3.org/2000/svg"
 width="224.000000pt" height="92.000000pt" viewBox="0 0 224.000000 92.000000"
 preserveAspectRatio="xMidYMid meet">

<g transform="translate(0.000000,92.000000) scale(0.100000,-0.100000)"
fill="#000000" stroke="none">
<path d="M517 893 c-3 -4 -13 -70 -23 -145 l-18 -137 -30 -7 c-81 -17 -153
-74 -196 -156 -30 -55 -34 -73 -35 -140 l-2 -77 -77 -72 c-42 -40 -86 -89 -97
-111 -11 -21 -18 -38 -16 -38 2 0 37 15 78 34 41 19 99 41 130 50 l57 17 47
-30 c101 -64 241 -66 360 -6 l70 35 71 -24 c39 -13 95 -35 125 -49 29 -15 55
-24 57 -22 2 2 -4 18 -14 37 -17 32 -151 168 -166 168 -4 0 -8 30 -8 68 0 37
-5 84 -10 104 -25 90 -121 184 -211 208 -44 12 -42 4 -64 174 -15 120 -19 134
-28 119z m-117 -534 c0 -42 -14 -52 -25 -18 -9 26 2 72 15 64 6 -3 10 -24 10
-46z m270 0 c0 -28 -4 -39 -12 -37 -16 6 -22 32 -14 64 10 37 26 19 26 -27z
m-72 1 c15 0 26 -8 32 -24 13 -35 27 -39 44 -15 l15 22 56 -28 c31 -15 59 -34
62 -42 21 -56 -73 -176 -162 -207 -54 -18 -171 -21 -225 -6 -90 25 -170 106
-186 187 -6 30 -4 33 56 63 l62 31 15 -21 c18 -26 36 -22 43 11 5 20 14 25 50
30 25 4 61 5 80 3 19 -2 45 -4 58 -4z"/>
<path d="M330 214 c0 -25 20 -55 32 -48 6 4 8 3 5 -3 -7 -12 16 -35 29 -31 5
2 9 -1 9 -6 0 -14 47 -28 55 -16 5 7 11 6 20 -5 13 -16 45 -21 35 -6 -3 5 -1
12 5 16 5 3 10 -1 10 -9 0 -21 14 -20 36 1 11 12 19 14 21 6 6 -16 43 -3 43
16 0 11 3 12 8 4 5 -8 14 -6 31 8 13 10 20 19 16 19 -3 0 1 7 9 16 9 8 16 24
16 35 0 16 -7 19 -50 19 -40 0 -51 -4 -61 -22 -10 -19 -12 -19 -21 -5 -11 21
-37 22 -44 2 -4 -8 -10 -15 -15 -15 -5 0 -9 7 -9 15 0 20 -36 19 -44 -2 -6
-14 -8 -14 -22 5 -12 18 -25 22 -65 22 -38 0 -49 -4 -49 -16z m80 -4 c0 -5 -2
-10 -4 -10 -3 0 -8 5 -11 10 -3 6 -1 10 4 10 6 0 11 -4 11 -10z m240 0 c0 -5
-4 -10 -10 -10 -5 0 -10 5 -10 10 0 6 5 10 10 10 6 0 10 -4 10 -10z"/>
<path d="M1300 545 l0 -277 81 4 c122 5 119 -2 119 273 0 275 3 268 -119 273
l-81 4 0 -277z m145 0 l0 -210 -47 -3 -48 -3 0 216 0 216 48 -3 47 -3 0 -210z"/>
<path d="M1570 545 l0 -275 90 0 90 0 0 30 0 30 -65 0 -65 0 0 125 0 125 50 0
c49 0 50 1 50 30 0 29 -1 30 -50 30 l-50 0 0 60 0 60 65 0 65 0 0 30 0 30 -90
0 -90 0 0 -275z"/>
<path d="M1810 545 l0 -275 90 0 90 0 0 30 0 30 -65 0 -65 0 0 125 0 125 50 0
c49 0 50 1 50 30 0 29 -1 30 -50 30 l-50 0 0 60 0 60 65 0 65 0 0 30 0 30 -90
0 -90 0 0 -275z"/>
<path d="M2050 546 l0 -276 30 0 30 0 0 84 0 83 50 5 c80 8 80 8 80 188 0 188
3 183 -112 189 l-78 3 0 -276z m140 84 l0 -130 -40 0 -40 0 0 130 0 130 40 0
40 0 0 -130z"/>
<path d="M1300 35 l0 -25 470 0 470 0 0 25 0 25 -470 0 -470 0 0 -25z"/>
</g>
</svg>
