<svg width="175" height="108" viewBox="0 0 175 108" fill="none" xmlns="http://www.w3.org/2000/svg">
<path d="M85.3198 49.1992C85.3198 52.1512 84.3354 54.5272 82.3535 56.3344C80.3717 58.1416 77.6052 59.0398 74.0542 59.0398H72.0854L70.5731 67.1002H65.3771L70.0087 42.3394H77.2187C78.5312 42.3394 79.6687 42.4546 80.6429 42.6724C81.6171 42.8902 82.46 43.2808 83.1658 43.8154C83.8433 44.3317 84.3975 45.061 84.7715 45.9286C85.136 46.825 85.3227 47.9086 85.3227 49.1992H85.3198ZM79.7971 49.822C79.7971 48.85 79.5156 48.1426 78.941 47.662C78.3664 47.1814 77.5337 46.9672 76.4181 46.9672H74.3327L72.9473 54.376H74.8139C76.3846 54.376 77.614 53.9854 78.4831 53.188C79.3625 52.3924 79.7956 51.262 79.7956 49.804L79.7971 49.822ZM94.8762 65.1328L93.7737 66.0328C93.3406 66.3802 92.9425 66.6556 92.5779 66.8572C92.1188 67.0986 91.6441 67.2925 91.1589 67.4368C90.7127 67.5664 90.1031 67.6402 89.3302 67.6402C88.076 67.6402 87.0435 67.2082 86.2473 66.337C85.451 65.4658 85.0514 64.3246 85.0514 62.917C85.0514 61.441 85.3329 60.217 85.8973 59.1694C86.4617 58.1218 87.3046 57.3154 88.4202 56.7088C89.4644 56.1292 90.7069 55.7098 92.139 55.4488L96.8173 54.8836L96.8756 54.565C96.9106 54.421 96.9223 54.2464 96.9223 54.061C96.9368 53.7069 96.8599 53.3563 96.7027 53.0597C96.5454 52.7631 96.3159 52.5357 96.0473 52.4104C95.464 52.0918 94.57 51.9334 93.3975 51.9334C92.5998 51.9334 91.7204 52.0918 90.7477 52.4248L88.5792 53.2492H88.1329L88.8621 48.8212C89.425 48.6484 90.3204 48.4612 91.4871 48.2272C92.6537 47.9932 93.8554 47.8942 95.0279 47.8942C97.3962 47.8942 99.1433 48.2542 100.246 49.0372C101.36 49.804 101.911 50.9902 101.911 52.5976C101.91 52.8876 101.894 53.1773 101.865 53.4652C101.84 53.7776 101.797 54.0874 101.736 54.3922L99.3679 67.1002H94.5496L94.8762 65.1328ZM96.1654 58.3018L93.7271 58.6204C93.0682 58.7114 92.4193 58.8907 91.7919 59.155C91.2406 59.4016 90.8192 59.749 90.5377 60.181C90.246 60.631 90.1046 61.207 90.1046 61.945C90.1046 62.5822 90.2942 63.025 90.6792 63.3058C91.0642 63.5866 91.6169 63.6964 92.3562 63.6964C92.8375 63.6964 93.3406 63.5668 93.8919 63.2914C94.4352 63.0191 94.9507 62.6687 95.4275 62.2474L96.1654 58.3018ZM109.346 73.9618H104.008L107.866 66.7402L105.381 48.4486H110.339L111.651 60.6778L117.408 48.4486H122.531L109.346 73.9618Z" fill="#123984"/>
<path d="M141.925 49.1992C141.925 52.1512 140.941 54.5272 138.959 56.3344C136.977 58.1416 134.21 59.0398 130.659 59.0398H128.691L127.178 67.1002H121.984L126.604 42.3538H133.814C135.126 42.3538 136.264 42.469 137.238 42.6868C138.212 42.9046 139.055 43.2952 139.761 43.8298C140.438 44.3461 140.992 45.0754 141.366 45.943C141.741 46.843 141.929 47.9104 141.929 49.183L141.925 49.1992ZM136.391 49.822C136.391 48.85 136.109 48.1426 135.535 47.662C134.96 47.1814 134.127 46.9672 133.012 46.9672H130.926L129.541 54.376H131.405C132.975 54.376 134.205 53.9854 135.074 53.188C135.953 52.3924 136.386 51.262 136.386 49.804L136.391 49.822ZM151.481 65.1328L150.379 66.0328C149.946 66.3802 149.548 66.6556 149.183 66.8572C148.724 67.0986 148.249 67.2925 147.764 67.4368C147.318 67.5664 146.708 67.6402 145.935 67.6402C144.681 67.6402 143.649 67.2082 142.853 66.337C142.056 65.4658 141.657 64.3246 141.657 62.917C141.657 61.441 141.938 60.217 142.503 59.1694C143.067 58.1218 143.91 57.3154 145.025 56.7088C146.07 56.1292 147.312 55.7098 148.744 55.4488L153.423 54.8836L153.481 54.565C153.516 54.421 153.528 54.2464 153.528 54.061C153.542 53.707 153.465 53.3564 153.308 53.0597C153.151 52.7631 152.921 52.5357 152.653 52.4104C152.069 52.0918 151.175 51.9334 150.003 51.9334C149.205 51.9334 148.326 52.0918 147.353 52.4248L145.184 53.2492H144.738L145.467 48.8212C146.03 48.6484 146.926 48.4612 148.092 48.2272C149.259 47.9932 150.461 47.8942 151.633 47.8942C154.001 47.8942 155.749 48.2542 156.851 49.0372C157.965 49.804 158.516 50.9902 158.516 52.5976C158.515 52.8877 158.499 53.1774 158.47 53.4652C158.445 53.7776 158.402 54.0874 158.341 54.3922L155.973 67.1002H151.143L151.481 65.1328ZM152.771 58.3018L150.332 58.6204C149.673 58.7115 149.025 58.8907 148.397 59.155C147.846 59.4016 147.424 59.749 147.143 60.181C146.851 60.631 146.71 61.207 146.71 61.945C146.71 62.5822 146.899 63.025 147.284 63.3058C147.669 63.5866 148.222 63.6964 148.961 63.6964C149.443 63.6964 149.946 63.5668 150.497 63.2914C151.04 63.0192 151.556 62.6688 152.033 62.2474L152.771 58.3018ZM170.088 41.2378L165.247 67.1128H160.369L165.21 41.2378H170.088Z" fill="#009DE2"/>
<path d="M58.7825 44.0786C58.7825 51.1226 56.4098 56.812 51.6749 61.1339C46.94 65.4558 40.3237 67.6103 31.8155 67.6103H27.112L23.506 86.8975H11.0782L22.5548 27.707H39.383C42.5187 27.707 45.2468 27.978 47.5881 28.5069C49.9189 29.0358 51.9362 29.9518 53.6295 31.2548C55.3019 32.5579 56.5875 34.2479 57.4655 36.325C58.3435 38.3892 58.7825 40.9823 58.7825 44.0786Z" fill="#009CDE"/>
<path d="M23.9241 87.5297H10.4301L22.1576 27.062H39.383C42.5292 27.062 45.3199 27.3329 47.6717 27.8619C50.0548 28.4037 52.1453 29.3584 53.8908 30.6872C55.6364 32.0419 56.9952 33.8351 57.915 36.0025C58.8348 38.1699 59.2947 40.8791 59.2947 44.0657C59.2947 51.2904 56.8384 57.212 51.9781 61.6371C47.17 66.0235 40.3864 68.2425 31.8051 68.2425H27.5092L23.9241 87.5297ZM11.7367 86.2653H23.0983L26.7044 66.9781H31.8155C40.1669 66.9781 46.7519 64.8365 51.3718 60.6179C53.6609 58.5279 55.4064 56.0767 56.5457 53.3416C57.685 50.6066 58.2599 47.4845 58.2599 44.0786C58.2599 41.0985 57.8314 38.5827 56.9952 36.596C56.159 34.6221 54.9361 33.0094 53.3473 31.7709C51.7167 30.5195 49.7413 29.6293 47.4836 29.1133C45.1945 28.5972 42.4665 28.3263 39.3726 28.3263H22.9624L11.7367 86.2653Z" fill="white"/>
<path d="M53.2637 37.4865C53.2637 44.5305 50.891 50.2199 46.1561 54.5418C41.4212 58.8637 34.8049 61.0182 26.2967 61.0182H21.5932L17.9871 80.3054H5.55933L16.6283 21.1021H33.8642C36.9999 21.1021 39.7279 21.373 42.0693 21.9019C44.4001 22.4309 46.4174 23.3468 48.1107 24.6499C49.7831 25.9529 51.0687 27.6429 51.9467 29.72C52.8247 31.7842 53.2637 34.3773 53.2637 37.4865Z" fill="#0F3572"/>
<path d="M18.3948 80.9374H4.91129L16.2102 20.4697H33.8642C37.0103 20.4697 39.8011 20.7407 42.1529 21.2696C44.536 21.8114 46.6265 22.7661 48.372 24.0949C50.1175 25.4496 51.4763 27.2428 52.3961 29.4102C53.3159 31.5776 53.7758 34.2868 53.7758 37.4734C53.7758 44.6981 51.3195 50.6197 46.4592 55.0448C41.6512 59.4312 34.8676 61.6502 26.2863 61.6502H21.9904L18.3948 80.9374ZM6.20737 79.6602H17.5795L21.1855 60.3729H26.2967C34.6481 60.3729 41.2331 58.2314 45.853 54.0127C48.142 51.9227 49.8876 49.4715 51.0269 46.7364C52.1662 44.0014 52.7411 40.8793 52.7411 37.4734C52.7411 34.4933 52.3125 31.9775 51.4763 29.9908C50.6401 28.0169 49.4172 26.4043 47.8285 25.1657C46.1979 23.9143 44.2224 23.0242 41.9647 22.5081C39.6757 21.9921 36.9476 21.7211 33.8537 21.7211H17.0255L6.20737 79.6602ZM40.491 39.5892C40.3969 41.3954 40.1042 42.7242 39.2053 44.2594C38.3169 45.7947 37.2716 46.788 35.871 47.6137C35.0244 48.104 34.1464 48.4265 33.2266 48.5813C32.3068 48.7361 31.2093 48.8264 29.9237 48.8264H23.7464L27.2061 33.5257H32.819C34.2509 33.5257 35.4007 33.5515 36.2682 33.7966C37.1358 34.0288 37.8465 34.3514 38.3796 34.7513C39.1217 35.2931 39.7175 35.9511 40.0624 36.7897C40.491 37.7702 40.5432 38.4023 40.491 39.5892Z" fill="white"/>
</svg>
