<svg width="108" height="108" viewBox="0 0 108 108" fill="none" xmlns="http://www.w3.org/2000/svg">
<path d="M54 108C83.8234 108 108 83.8234 108 54C108 24.1766 83.8234 0 54 0C24.1766 0 0 24.1766 0 54C0 83.8234 24.1766 108 54 108Z" fill="#FF8C00"/>
<path d="M76.2413 65.6269C76.4134 66.9803 76.0286 67.5034 75.6 67.5034C75.1714 67.5034 74.5706 66.9803 73.9294 65.934C73.2881 64.8878 73.0283 63.7065 73.3725 63.099C73.5851 62.7041 74.0576 62.5286 74.6145 62.748C75.7283 63.1867 76.1569 64.8844 76.2413 65.6269ZM70.2439 68.5969C71.5703 69.7309 71.9584 71.037 71.2699 71.9989C71.0537 72.2514 70.7841 72.4526 70.4806 72.588C70.177 72.7235 69.8472 72.7897 69.5149 72.7819C68.775 72.7892 68.0582 72.525 67.5 72.0394C66.3019 70.9931 65.9576 69.2483 66.7271 68.2897C66.8914 68.0864 67.1015 67.925 67.3403 67.8188C67.5792 67.7126 67.8398 67.6647 68.1007 67.6789C68.7859 67.6789 69.5588 67.9826 70.2439 68.5935V68.5969ZM23.625 50.2673C23.625 33.6859 36.8213 20.25 53.1023 20.25C69.3866 20.25 82.5829 33.6893 82.5829 50.2673C82.5832 55.6786 81.1497 60.9935 78.4283 65.6708C78.3405 65.8024 78.1245 65.7585 78.084 65.583C77.058 58.2086 72.6435 54.1519 66.2175 52.9301C65.6573 52.8424 65.5729 52.4914 66.3019 52.407C68.2729 52.2315 71.0573 52.2754 72.5119 52.5386C72.5996 51.7961 72.6435 51.0098 72.6435 50.2234C72.6435 39.2715 63.9023 30.3716 53.1461 30.3716C42.3934 30.3716 33.6521 39.2715 33.6521 50.2234C33.6521 61.1786 42.3934 70.0785 53.1461 70.0785H54.0473C53.7413 68.3069 53.6113 66.5094 53.6591 64.7123C53.703 63.4905 53.9629 63.315 54.4759 64.2735C57.1759 69.0323 61.0301 73.3084 68.5733 75.006C74.7428 76.4066 80.9123 78.0199 87.5543 86.616C88.1516 87.3585 87.2539 88.1415 86.5688 87.5306C79.7985 81.4219 73.629 79.4138 68.0164 79.4138C61.7153 79.461 57.4324 80.2913 53.1023 80.2913C36.8213 80.2913 23.625 66.8453 23.625 50.2639V50.2673Z" fill="white"/>
</svg>
