<svg width="108" height="108" viewBox="0 0 108 108" fill="none" xmlns="http://www.w3.org/2000/svg">
<path d="M107.968 0H0.0316406C0.014166 0 0 0.014166 0 0.0316406V107.968C0 107.986 0.014166 108 0.0316406 108H107.968C107.986 108 108 107.986 108 107.968V0.0316406C108 0.014166 107.986 0 107.968 0Z" fill="#37AEE2"/>
<path d="M41.9766 85.2188C39.6562 85.2188 39.8672 84.375 39.2344 82.2656L32.4844 60.1172L84.1641 29.7422" fill="#C8DAEA"/>
<path d="M41.9766 85.2188C43.4531 85.2188 44.2969 84.375 45.3516 83.5312L54.8438 74.4609L43.0312 67.2891" fill="#A9C9DD"/>
<path d="M43.0312 67.2891L71.5078 88.1719C74.4609 90.0703 76.9922 89.0156 77.8359 85.2188L89.4375 30.7969C90.4922 26.1563 87.539 24.0469 84.375 25.5234L16.664 51.6797C12.2344 53.3672 12.2344 56.1094 15.8203 57.1641L33.3281 62.6484L73.4062 37.125C75.3047 36.0703 76.9922 36.4922 75.7265 37.9688" fill="#F6FBFE"/>
</svg>
