<svg width="108" height="108" viewBox="0 0 108 108" fill="none" xmlns="http://www.w3.org/2000/svg">
<path fill-rule="evenodd" clip-rule="evenodd" d="M37.4227 0H70.5773C100.836 0 108 7.16443 108 37.4227V70.5773C108 100.836 100.836 108 70.5773 108H37.4227C7.16443 108 0 100.836 0 70.5773V37.4227C0 7.16443 7.16443 0 37.4227 0Z" fill="#4680C2"/>
<path fill-rule="evenodd" clip-rule="evenodd" d="M88.2725 34.4725C88.8059 32.7958 88.2724 31.5763 85.9097 31.5763H78.0592C76.0777 31.5763 75.1631 32.6432 74.6296 33.7867C74.6296 33.7867 70.5899 43.5425 64.9499 49.8683C63.1206 51.6976 62.2822 52.3073 61.2916 52.3073C60.7579 52.3073 60.0721 51.6976 60.0721 50.0209V34.3962C60.0721 32.4146 59.4623 31.5 57.7854 31.5H45.4383C44.2188 31.5 43.4567 32.4146 43.4567 33.3292C43.4567 35.2348 46.2766 35.692 46.5815 41.0272V52.6122C46.5815 55.1275 46.1243 55.5847 45.1334 55.5847C42.4658 55.5847 35.9874 45.7526 32.1003 34.5487C31.338 32.3383 30.5759 31.5 28.5943 31.5H20.6676C18.3811 31.5 18 32.5672 18 33.7104C18 35.7683 20.6676 46.1338 30.4234 59.8529C36.902 69.2276 46.1243 74.2579 54.432 74.2579C59.4623 74.2579 60.0721 73.1147 60.0721 71.2094V64.1212C60.0721 61.8345 60.5293 61.4536 62.1299 61.4536C63.2732 61.4536 65.331 62.0631 69.9802 66.56C75.3154 71.8952 76.23 74.3342 79.2025 74.3342H87.0529C89.3394 74.3342 90.4066 73.1909 89.7968 70.9805C89.1108 68.7704 86.5195 65.5693 83.1658 61.7582C81.3366 59.6243 78.5927 57.2616 77.7544 56.1182C76.6111 54.594 76.916 53.9843 77.7544 52.6122C77.6783 52.6122 87.2816 39.0456 88.2725 34.4725Z" fill="white"/>
</svg>
